<?xml version="1.0" encoding="UTF-8"?>
<!DOCTYPE svg PUBLIC "-//W3C//DTD SVG 1.1//EN" "http://www.w3.org/Graphics/SVG/1.1/DTD/svg11.dtd">
<!-- Creator: CorelDRAW X7 -->
<svg xmlns="http://www.w3.org/2000/svg" xml:space="preserve" width="8.5in" height="8.5in" version="1.1" style="shape-rendering:geometricPrecision; text-rendering:geometricPrecision; image-rendering:optimizeQuality; fill-rule:evenodd; clip-rule:evenodd"
viewBox="0 0 8500 8500"
 xmlns:xlink="http://www.w3.org/1999/xlink">
 <defs>
  <style type="text/css">
   <![CDATA[
    .fil1 {fill:#0C0C0C}
    .fil0 {fill:#C6BB0C}
    .fil2 {fill:#C8C379}
   ]]>
  </style>
 </defs>
 <g id="Layer_x0020_1">
  <metadata id="CorelCorpID_0Corel-Layer"/>
  <g id="_1888199753824">
   <path class="fil0" d="M2376 5978c-60,-33 -146,-184 -190,-263 -114,-204 -188,-446 -207,-689 -6,-72 -13,-145 -1,-217 5,-30 39,-180 -6,-194 -32,1 -17,-21 -36,33l-55 150c-66,188 -18,564 32,738 137,485 327,613 383,729 19,71 219,232 292,286 127,96 226,151 371,224 394,198 1029,281 1505,182 167,-35 312,-80 461,-135 190,-70 486,-242 648,-373 280,-227 488,-509 645,-836 200,-414 203,-949 65,-1372 -14,-43 -21,-67 -35,-111 -10,-32 -28,-72 -32,-114 -11,-98 19,-198 20,-278 0,-58 -57,-161 -83,-206l-273 -467c-36,-61 -18,-48 -79,-80l-271 299c-46,78 -44,138 -4,220 373,775 392,478 542,611 60,54 64,116 86,206 120,490 -21,991 -277,1375 -373,561 -963,864 -1623,965 -107,16 -430,16 -539,2 -67,-9 -185,-27 -249,-43 -428,-105 -719,-279 -1014,-577 -34,-34 -42,-50 -76,-65z"/>
   <path class="fil1" d="M3287 3180l-12 24 12 -24zm12 -25l-12 25 12 -25zm12 -24l-12 24 12 -24zm12 -24l-12 24 12 -24zm0 0l0 0zm-48 97c-13,156 -37,52 -37,352 72,-52 73,-537 479,-603 239,-39 471,147 669,111 61,-11 173,-34 189,-91 -348,81 -755,-315 -1162,-141 -48,20 -125,102 -150,141 -75,117 -122,257 -158,413 -50,-33 -103,-139 -124,-204 -56,-181 20,-343 129,-483 69,-89 172,-133 242,-256l60 -110c131,-274 137,-374 591,-100 283,170 301,78 542,113 229,33 317,90 375,294 56,193 49,424 -114,492 -124,52 -224,-101 -306,167 -10,34 -21,108 -35,136 -93,-8 -137,-50 -340,-49 -145,1 -237,1 -357,32 -133,34 -405,121 -516,213 -19,17 -16,7 -26,34l169 -62c336,-104 692,-122 1046,-108 127,5 109,59 125,-81 9,-75 26,-127 57,-186 109,0 133,77 280,-36 274,-210 169,-850 -163,-979 -76,-30 -209,-55 -311,-54 -298,2 -357,-97 -559,-182 -256,-108 -397,13 -509,232 -85,164 -42,113 -186,275 -220,248 -439,476 -233,882 44,86 98,154 223,154 0,-86 50,-248 110,-316z"/>
   <path class="fil1" d="M2254 4759c0,241 80,425 210,579 72,85 300,306 410,332 -28,-41 -38,-42 -75,-71 -63,-50 -161,-165 -208,-229 -304,-410 -129,-951 253,-1236 193,-144 307,-213 535,-304 161,-64 514,-151 686,-164 493,-38 997,24 1433,255 -10,-27 -16,-29 -49,-49 -496,-293 -856,-328 -1433,-328 -174,0 -475,59 -634,108 -350,107 -680,282 -913,568 -97,120 -215,330 -215,539z"/>
   <path class="fil1" d="M3943 4030c90,0 158,49 158,134l0 1081c0,102 -53,145 -158,145l449 0c-80,0 -158,-29 -158,-121l0 -1191c230,0 372,-38 454,130 40,80 49,173 31,270 -38,204 -238,232 -424,232l0 24c82,19 345,336 417,422l418 444c140,125 341,213 543,172 54,-11 42,9 56,-42 -76,7 -133,8 -215,-28 -137,-59 -148,-86 -242,-159 -68,-53 -668,-692 -722,-772 291,0 422,-406 271,-611 -75,-103 -181,-156 -355,-155 -175,1 -349,1 -523,1l0 24z"/>
   <path class="fil2" d="M2024 4589c14,-61 98,-229 129,-296l183 -449c71,-177 106,-309 149,-494 42,27 64,87 59,156 -11,193 -105,361 -170,522 -41,103 -181,345 -248,432l-102 129zm-37 -25l83 -537c32,-136 147,-702 330,-702 61,0 30,76 13,146 -56,225 -143,422 -230,633 -49,121 -66,184 -127,311l-60 134c-1,2 -3,6 -4,8 -1,1 -3,5 -5,7zm571 -1202c70,16 97,89 97,158 0,239 -150,442 -260,626 -29,48 -92,148 -128,175 6,-80 426,-678 291,-959zm-607 1190l-37 -316c0,-159 48,-429 90,-554 46,-135 132,-343 299,-357 -13,47 -101,128 -149,240 -22,49 -35,88 -53,141 -70,210 -104,442 -128,662 -6,61 -22,108 -22,184zm-85 -328c0,-164 -79,-381 48,-656 46,-98 134,-205 243,-230 -27,52 -26,40 -63,82 -21,22 -45,58 -61,85 -87,144 -135,408 -143,586 -3,68 18,103 -24,133zm430 2041c-56,-116 -246,-244 -383,-729 -50,-174 -98,-550 -32,-738l55 -150c19,-54 4,-32 36,-33 45,14 11,164 6,194 -12,72 -5,145 1,217 19,243 93,485 207,689 44,79 130,230 190,263 -9,-40 -22,-48 -47,-79 -214,-277 -385,-777 -328,-1090 8,-42 5,-61 11,-111 6,-59 51,-81 118,-149 163,-164 662,-834 557,-1109 -75,-197 -388,-188 -571,-120 -72,27 -108,64 -156,112 -209,206 -168,589 -134,844 26,203 105,353 77,422 -92,231 -74,169 -74,450 0,140 41,333 78,444 58,178 247,599 389,673z"/>
   <path class="fil1" d="M2959 4321c0,180 92,229 226,334 163,127 430,304 430,505 0,151 -75,277 -202,332 -319,136 -669,-128 -519,-482 20,-47 61,-94 65,-142 -75,20 -292,350 -22,617 170,167 508,162 669,6 282,-274 150,-583 -135,-795 -39,-28 -70,-55 -108,-86 -39,-31 -71,-53 -110,-85 -125,-102 -173,-109 -173,-264 0,-273 462,-301 462,-12l36 0c-21,-92 -12,-147 -12,-256 -246,-12 -370,-55 -513,94 -54,56 -94,130 -94,234z"/>
  </g>
 </g>
</svg>
