<?xml version="1.0" encoding="UTF-8"?>
<svg version="1.1" xmlns="http://www.w3.org/2000/svg" width="500" height="500">
<path d="M0 0 C2.32201928 1.97743631 4.45323665 3.95459478 6.51953125 6.19921875 C7.15246094 6.77285156 7.78539062 7.34648437 8.4375 7.9375 C11.70524656 7.73432803 11.70524656 7.73432803 15.4375 6.9375 C25.88657199 6.06825311 35.93316289 8.00393604 44.47265625 14.2734375 C53.41795599 21.84937724 57.6627279 31.2624003 58.6953125 42.82421875 C59.21734867 56.41456039 52.80689256 64.9328569 44.4375 74.9375 C43.13087938 76.33883847 41.81926626 77.73556001 40.5 79.125 C32.44717137 88.40769663 34.08046199 101.0531085 34.25 112.5625 C34.2650734 114.34764497 34.27875711 116.13280224 34.29101562 117.91796875 C34.32381255 122.25812029 34.37544791 126.59767217 34.4375 130.9375 C31.9625 131.9275 31.9625 131.9275 29.4375 132.9375 C29.4375 133.5975 29.4375 134.2575 29.4375 134.9375 C28.18858386 135.41948463 26.93831192 135.89795677 25.6875 136.375 C24.99140625 136.64183594 24.2953125 136.90867187 23.578125 137.18359375 C18.95732343 138.81099284 14.74558098 139.08587356 9.86181641 139.08276367 C9.10343475 139.08612228 8.3450531 139.0894809 7.56369019 139.09294128 C5.05546426 139.10243998 2.54730531 139.10439463 0.0390625 139.10546875 C-1.71530179 139.10868484 -3.46966581 139.11204918 -5.22402954 139.11555481 C-8.90766011 139.12154533 -12.59126724 139.12339506 -16.27490234 139.12280273 C-20.95926323 139.12270175 -25.64347037 139.1362881 -30.32779503 139.15357494 C-33.95700751 139.16478882 -37.58618412 139.166719 -41.21541214 139.16619301 C-42.93990223 139.16736157 -44.66439361 139.17171901 -46.38886642 139.17952538 C-68.88503821 139.27173366 -68.88503821 139.27173366 -76.5625 136.9375 C-79.00851582 134.45343259 -79.51793955 133.3797581 -79.87133789 129.87231445 C-79.84289795 128.6937085 -79.81445801 127.51510254 -79.78515625 126.30078125 C-79.76646484 125.00076172 -79.74777344 123.70074219 -79.72851562 122.36132812 C-79.69536026 120.9908521 -79.66084569 119.6204083 -79.625 118.25 C-78.62866962 103.86488333 -78.62866962 103.86488333 -83.875 91.0625 C-86.36111552 89.09673424 -88.83246904 87.5355669 -91.5625 85.9375 C-93.6867027 84.36196577 -95.59626282 82.72083139 -97.5625 80.9375 C-97.5625 80.2775 -97.5625 79.6175 -97.5625 78.9375 C-98.5525 78.6075 -99.5425 78.2775 -100.5625 77.9375 C-100.5625 76.9475 -100.5625 75.9575 -100.5625 74.9375 C-101.5525 74.6075 -102.5425 74.2775 -103.5625 73.9375 C-104.5625 71.875 -104.5625 71.875 -105.5625 68.9375 C-106.09875 67.82375 -106.635 66.71 -107.1875 65.5625 C-110.16664606 57.55224504 -109.86174438 46.96894425 -106.66015625 39.046875 C-101.68916491 29.49408026 -94.27962735 19.86973637 -83.72265625 16.34375 C-81.5625 15.9375 -81.5625 15.9375 -78.93359375 15.96875 C-75.84553569 16.00310948 -73.51116067 15.8950765 -70.5625 14.9375 C-67.89285295 12.16298957 -65.87818134 9.22362757 -63.7421875 6.0234375 C-57.69987072 -2.53109701 -48.40641562 -7.14253269 -38.375 -9.375 C-24.45563977 -11.5104667 -11.14458031 -8.74596639 0 0 Z M-71.5625 17.9375 C-71.8925 19.5875 -72.2225 21.2375 -72.5625 22.9375 C-71.9025 22.9375 -71.2425 22.9375 -70.5625 22.9375 C-70.5625 21.2875 -70.5625 19.6375 -70.5625 17.9375 C-70.8925 17.9375 -71.2225 17.9375 -71.5625 17.9375 Z " fill="#F2CA50" transform="translate(141.5625,194.0625)"/>
<path d="M0 0 C3.98340305 -0.09973852 7.96631108 -0.17187198 11.95068359 -0.21972656 C13.96347627 -0.24946045 15.97592134 -0.30031729 17.98828125 -0.3515625 C26.95859275 -0.44171638 32.39004819 0.31203855 39.5 6 C41.9332406 10.8664812 41.84337942 15.6802221 41 21 C39.01280186 25.03723258 35.55370671 27.38028031 32 30 C32.2673999 30.55985596 32.5347998 31.11971191 32.81030273 31.6965332 C34.02117233 34.2343327 35.22936412 36.77339804 36.4375 39.3125 C36.85837891 40.19357422 37.27925781 41.07464844 37.71289062 41.98242188 C38.31713867 43.25375977 38.31713867 43.25375977 38.93359375 44.55078125 C39.30540771 45.33106689 39.67722168 46.11135254 40.06030273 46.9152832 C41 49 41 49 42 52 C44.97 52.495 44.97 52.495 48 53 C48 54.32 48 55.64 48 57 C43.69736988 57.33746119 40.17109255 57.58554627 36.25 55.625 C32.31269045 51.03147219 29.94215136 45.60086854 27.890625 39.9375 C27.51421875 38.9475 27.1378125 37.9575 26.75 36.9375 C26.43546875 36.01839844 26.1209375 35.09929687 25.796875 34.15234375 C23.49722356 30.89304376 23.49722356 30.89304376 15 31 C15.33 37.93 15.66 44.86 16 52 C17.65 52.66 19.3 53.32 21 54 C21 54.66 21 55.32 21 56 C14.07 56 7.14 56 0 56 C0 55.01 0 54.02 0 53 C2.97 52.505 2.97 52.505 6 52 C6 36.16 6 20.32 6 4 C3.03 3.505 3.03 3.505 0 3 C0 2.01 0 1.02 0 0 Z " fill="#583012" transform="translate(112,245)"/>
<path d="M0 0 C2.4375 1.4375 2.4375 1.4375 4 3 C4 3.66 4 4.32 4 5 C4.66 5 5.32 5 6 5 C8.19405526 10.62226661 8.50466683 15.1962954 7.4375 21.125 C5.45932852 25.08134296 2.87900087 26.97123385 -1 29 C-5.52749354 30.35824806 -7.75386709 29.83713158 -12 28 C-11.98839844 28.85464844 -11.97679687 29.70929688 -11.96484375 30.58984375 C-11.95582031 31.69457031 -11.94679688 32.79929687 -11.9375 33.9375 C-11.92589844 35.03964844 -11.91429687 36.14179688 -11.90234375 37.27734375 C-12 40 -12 40 -13 41 C-5.81008919 41.05068173 1.3797756 41.08572588 8.56982422 41.10986328 C11.01613079 41.11992504 13.46242533 41.13357581 15.90869141 41.15087891 C19.42353282 41.17511919 22.9382153 41.18648138 26.453125 41.1953125 C27.5480426 41.20563507 28.64296021 41.21595764 29.77105713 41.22659302 C31.30219147 41.22681961 31.30219147 41.22681961 32.86425781 41.22705078 C34.20994843 41.23371262 34.20994843 41.23371262 35.58282471 41.24050903 C38.15582894 40.98449501 39.78549571 40.30021324 42 39 C42 39.99 42 40.98 42 42 C68.73 42 95.46 42 123 42 C122.67 42.99 122.34 43.98 122 45 C103.67343565 45.84979298 85.34189809 46.226316 67 46.5625 C65.79300446 46.58464569 64.58600891 46.60679138 63.34243774 46.62960815 C57.82078089 46.7300922 52.29909178 46.82872362 46.77734375 46.92407227 C45.92390381 46.93882095 45.07046387 46.95356964 44.19116211 46.96876526 C40.76947045 47.01754104 37.35268081 46.9795374 33.93139648 46.92407227 C32.89438095 46.90727921 31.85736542 46.89048615 30.78892517 46.8731842 C25.951299 46.79282023 21.1137031 46.71077788 16.27612305 46.62768555 C13.75823769 46.5849281 11.24033415 46.54322513 8.72241211 46.50268555 C-8.52979497 46.22436872 -25.76139819 45.74421385 -43 45 C-42.67 44.01 -42.34 43.02 -42 42 C-35.73 41.67 -29.46 41.34 -23 41 C-23.01160156 38.12410156 -23.02320313 35.24820313 -23.03515625 32.28515625 C-23.04294625 29.51180125 -23.04902333 26.73844746 -23.05493164 23.96508789 C-23.05997256 22.03181415 -23.06680519 20.09854424 -23.07543945 18.1652832 C-23.08751565 15.39273128 -23.09323057 12.62022959 -23.09765625 9.84765625 C-23.10281754 8.97786636 -23.10797882 8.10807648 -23.11329651 7.21192932 C-23.11349185 5.14094186 -23.06208168 3.07005676 -23 1 C-22 0 -22 0 -19.3828125 -0.0625 C-17.21614391 -0.02093322 -15.04947723 0.02073297 -12.8828125 0.0625 C-0.93366093 -0.1965602 -0.93366093 -0.1965602 0 0 Z M-10 9 C-12.37994368 10.94332332 -12.37994368 10.94332332 -12.25 14.5 C-12.37994368 18.05667668 -12.37994368 18.05667668 -10 20 C-7.46048456 19.90888062 -7.46048456 19.90888062 -5 19 C-2.70362221 16.24104365 -2.70362221 16.24104365 -3.25 13.4375 C-3.83808052 10.84999433 -3.83808052 10.84999433 -6 9 C-7.32 9 -8.64 9 -10 9 Z " fill="#6F4F3A" transform="translate(293,255)"/>
<path d="M0 0 C0.1799928 5.21979128 -0.02905192 9.07262981 -2 14 C-3.32 14 -4.64 14 -6 14 C-6 10.37 -6 6.74 -6 3 C-14.6588933 2.22305017 -14.6588933 2.22305017 -22.8125 4.5 C-25.14820221 7.16937395 -25.35096694 7.70625342 -25.4375 11.0625 C-25.15059903 14.89741805 -25.15059903 14.89741805 -24 18 C-22.36476486 18.74042439 -20.68678659 19.38601855 -19 20 C-16.10918438 21.36711034 -13.27517347 22.83885841 -10.4375 24.3125 C-9.68275391 24.69083984 -8.92800781 25.06917969 -8.15039062 25.45898438 C-2.72027362 28.28647261 0.98576551 30.95729653 3 37 C3.37373979 41.55962546 3.45422154 44.03477922 1.5 48.1875 C-2.0415342 52.17172598 -5.96748509 55.43655594 -11.33496094 56.43383789 C-13.78361139 56.56156966 -16.17535137 56.53665244 -18.625 56.4375 C-19.44484375 56.43169922 -20.2646875 56.42589844 -21.109375 56.41992188 C-25.7664172 56.3263318 -29.62674072 55.76204136 -34 54 C-34.3690205 44.58997722 -34.3690205 44.58997722 -32 40 C-30.68 40 -29.36 40 -28 40 C-27.67 43.63 -27.34 47.26 -27 51 C-24.77144426 51.0814222 -22.54202345 51.13938079 -20.3125 51.1875 C-19.07113281 51.22230469 -17.82976562 51.25710938 -16.55078125 51.29296875 C-12.50392869 50.95907002 -9.88757052 49.88757052 -7 47 C-6.68437447 45.00391573 -6.68437447 45.00391573 -6.625 42.6875 C-6.57601562 41.90761719 -6.52703125 41.12773437 -6.4765625 40.32421875 C-7.26944966 36.80356306 -9.01391394 35.96228512 -12 34 C-15.52830373 32.08812672 -19.13361696 30.33293309 -22.76171875 28.61914062 C-27.94859637 26.0165215 -31.35246061 23.24714918 -34 18 C-35.00321418 13.81554086 -34.47518883 10.12544723 -32.8125 6.1875 C-24.69589296 -3.60840505 -11.42791623 -4.33057878 0 0 Z " fill="#572F12" transform="translate(109,246)"/>
<path d="M0 0 C3.01125 -0.061875 6.0225 -0.12375 9.125 -0.1875 C10.06230957 -0.21481201 10.99961914 -0.24212402 11.96533203 -0.27026367 C17.09149996 -0.32103403 20.52494193 0.20492275 25 3 C25 3.66 25 4.32 25 5 C25.66 5 26.32 5 27 5 C27.89214652 7.67643957 28.13540211 9.25384378 28.125 12 C28.12886719 13.0209375 28.12886719 13.0209375 28.1328125 14.0625 C28 16 28 16 27 19 C24.4375 20.1875 24.4375 20.1875 22 21 C22.4640625 22.11375 22.4640625 22.11375 22.9375 23.25 C23.8094925 25.50692176 24.47667007 27.6450153 25 30 C25.66 30 26.32 30 27 30 C27.33 31.98 27.66 33.96 28 36 C24.17189265 36.6130421 20.79665393 36.88536511 17 36 C14.22178237 33.00645738 12.58421908 29.74330246 11 26 C10.93941406 26.63808594 10.87882812 27.27617187 10.81640625 27.93359375 C10.73261719 28.75988281 10.64882813 29.58617187 10.5625 30.4375 C10.48128906 31.26121094 10.40007812 32.08492188 10.31640625 32.93359375 C10 35 10 35 9 36 C6.03 36 3.06 36 0 36 C0 24.12 0 12.24 0 0 Z M10 9 C10 10.98 10 12.96 10 15 C11.98 15 13.96 15 16 15 C16.66 13.68 17.32 12.36 18 11 C16.10244856 8.65026182 16.10244856 8.65026182 12.875 8.875 C11.92625 8.91625 10.9775 8.9575 10 9 Z " fill="#755542" transform="translate(366,248)"/>
<path d="M0 0 C2.19332578 3.21687781 2.3186317 4.93476736 1.875 8.75 C-1.755 8.75 -5.385 8.75 -9.125 8.75 C-9.125 7.76 -9.125 6.77 -9.125 5.75 C-10.775 5.75 -12.425 5.75 -14.125 5.75 C-10.84051486 9.5952509 -6.3364187 11.15704875 -1.83984375 13.25 C0.875 14.75 0.875 14.75 2.875 17.75 C3.33414338 21.80576653 3.09475515 24.25316228 1.4375 28 C-2.00532384 31.69473778 -5.14402726 33.05664859 -10.125 33.75 C-14.67368179 33.50671556 -18.17019556 32.2870775 -22.125 30.0625 C-24.73648448 27.04297106 -24.8987875 24.67101665 -25.125 20.75 C-21.495 20.75 -17.865 20.75 -14.125 20.75 C-13.795 21.41 -13.465 22.07 -13.125 22.75 C-10.59766765 23.40555119 -10.59766765 23.40555119 -8.125 23.75 C-8.125 22.76 -8.125 21.77 -8.125 20.75 C-8.77726562 20.57984375 -9.42953125 20.4096875 -10.1015625 20.234375 C-15.46344741 18.74759865 -19.79955562 17.29908257 -24.125 13.75 C-25.61162465 9.29012606 -25.71222949 5.47253983 -24.1875 1 C-17.6631222 -6.11750306 -7.38229466 -5.31525215 0 0 Z " fill="#7E604E" transform="translate(232.125,251.25)"/>
<path d="M0 0 C5.71279079 0.75354018 5.71279079 0.75354018 14.875 0.5625 C14.875 10.1325 14.875 19.7025 14.875 29.5625 C10.585 29.5625 6.295 29.5625 1.875 29.5625 C-0.105 29.8925 -2.085 30.2225 -4.125 30.5625 C-9.30161353 28.95596477 -12.16671403 27.11370919 -15.125 22.5625 C-16.8604912 17.3560264 -16.78844383 12.41315911 -14.9375 7.25 C-12.62350446 3.81890317 -10.22428786 1.26082574 -6.22265625 -0.0703125 C-3.96114717 -0.46618187 -2.26487526 -0.33847767 0 0 Z M-5.125 11.5625 C-5.54166667 15.0625 -5.54166667 15.0625 -5.125 18.5625 C-2.35511924 20.87793207 -2.35511924 20.87793207 0.5 20.25 C2.81001965 19.7883486 2.81001965 19.7883486 3.875 18.5625 C4.13793056 14.53089809 4.16904844 13.00357266 1.875 9.5625 C-1.58295783 9.13025527 -2.60475609 9.04225609 -5.125 11.5625 Z " fill="#5D3821" transform="translate(412.125,254.4375)"/>
<path d="M0 0 C5.7652156 0.75115313 5.7652156 0.75115313 14.9375 0.5625 C14.9375 10.1325 14.9375 19.7025 14.9375 29.5625 C10.6475 29.5625 6.3575 29.5625 1.9375 29.5625 C-0.0425 29.8925 -2.0225 30.2225 -4.0625 30.5625 C-7.95439515 29.45150366 -11.19256536 27.46049704 -14 24.5625 C-16.34168354 20.1546251 -16.725961 15.50159858 -16.0625 10.5625 C-14.67788852 6.76986855 -12.79429625 4.09796067 -9.5 1.6875 C-5.99129888 0.06809948 -3.78115774 -0.55585078 0 0 Z M-3.875 10.625 C-5.74061985 13.66890607 -4.76128609 16.19562157 -4.0625 19.5625 C-1.70882287 20.2503236 -1.70882287 20.2503236 0.9375 20.5625 C1.9275 19.9025 2.9175 19.2425 3.9375 18.5625 C4.36882515 14.50804358 4.23769361 13.01279042 1.9375 9.5625 C-1.83752919 9.22535367 -1.83752919 9.22535367 -3.875 10.625 Z " fill="#684530" transform="translate(252.0625,254.4375)"/>
<path d="M0 0 C0.99 0 1.98 0 3 0 C6.3 0 9.6 0 13 0 C13 9.57 13 19.14 13 29 C8.66666667 29 4.33333333 29 0 29 C-0.9075 29.226875 -1.815 29.45375 -2.75 29.6875 C-7.02658325 30.09870993 -9.2681314 29.07326034 -13 27 C-17.43374108 22.33290413 -18.31220525 18.51934325 -18.2109375 12.28125 C-17.89859548 8.90332887 -16.93554379 6.77427943 -15 4 C-9.62688722 -0.14177443 -6.60722857 -1.23885536 0 0 Z M-5 9 C-7.56687367 12.8503105 -6.83288724 14.58569763 -6 19 C-3.64632287 19.6878236 -3.64632287 19.6878236 -1 20 C-0.01 19.34 0.98 18.68 2 18 C2.41666667 14.5 2.41666667 14.5 2 11 C0.17084359 8.76154985 0.17084359 8.76154985 -2.5 8.6875 C-3.325 8.790625 -4.15 8.89375 -5 9 Z " fill="#785946" transform="translate(339,255)"/>
<path d="M0 0 C3.30557316 0.43306846 6.47862338 0.61035469 9.8125 0.5625 C11.1325 0.5625 12.4525 0.5625 13.8125 0.5625 C15.61529191 2.36529191 14.94286605 5.10297701 14.9453125 7.53125 C14.94724609 9.34689453 14.94724609 9.34689453 14.94921875 11.19921875 C14.94535156 12.47410156 14.94148438 13.74898438 14.9375 15.0625 C14.94330078 16.97482422 14.94330078 16.97482422 14.94921875 18.92578125 C14.94792969 20.13621094 14.94664062 21.34664063 14.9453125 22.59375 C14.94418457 23.71330078 14.94305664 24.83285156 14.94189453 25.98632812 C14.8125 28.5625 14.8125 28.5625 13.8125 29.5625 C11.91725333 29.6096601 10.0204663 29.59980315 8.125 29.5625 C4.71597325 29.51817459 1.8461049 29.5555254 -1.5 30.25 C-5.45507766 30.70989275 -7.75094712 29.47169604 -11.1875 27.5625 C-15.6230866 22.89346148 -16.49349197 19.08233923 -16.40234375 12.84375 C-15.96438913 8.19346816 -14.07184093 5.40149011 -10.75 2.25 C-7.02362311 -0.20395552 -4.37212232 -0.64506723 0 0 Z M-5 11.25 C-6.40818674 13.51935375 -6.40818674 13.51935375 -6.0625 16.1875 C-5.3307514 18.89237773 -5.3307514 18.89237773 -2.1875 20.5625 C0.45882287 20.2503236 0.45882287 20.2503236 2.8125 19.5625 C4.00095297 14.93226382 4.00095297 14.93226382 2.625 10.625 C-0.36363913 8.87303913 -2.46621414 8.89095799 -5 11.25 Z " fill="#5C3720" transform="translate(472.1875,254.4375)"/>
<path d="M0 0 C0.66 0 1.32 0 2 0 C2 0.99 2 1.98 2 3 C28.73 3 55.46 3 83 3 C82.67 3.99 82.34 4.98 82 6 C63.67343565 6.84979298 45.34189809 7.226316 27 7.5625 C25.18950668 7.59571854 25.18950668 7.59571854 23.34243774 7.62960815 C17.82078089 7.7300922 12.29909178 7.82872362 6.77734375 7.92407227 C5.92390381 7.93882095 5.07046387 7.95356964 4.19116211 7.96876526 C0.76947045 8.01754104 -2.64731919 7.9795374 -6.06860352 7.92407227 C-7.10561905 7.90727921 -8.14263458 7.89048615 -9.21107483 7.8731842 C-14.048701 7.79282023 -18.8862969 7.71077788 -23.72387695 7.62768555 C-26.24176231 7.5849281 -28.75966585 7.54322513 -31.27758789 7.50268555 C-48.52979497 7.22436872 -65.76139819 6.74421385 -83 6 C-82.67 5.01 -82.34 4.02 -82 3 C-68.20670905 2.27444357 -54.44345169 1.95720834 -40.6328125 2.00390625 C-38.88067444 2.00920853 -38.88067444 2.00920853 -37.09313965 2.01461792 C-31.14553617 2.03586154 -25.19838244 2.07236991 -19.25097656 2.125 C-17.02929812 2.13695158 -14.80761845 2.14868009 -12.5859375 2.16015625 C-11.54752716 2.17365616 -10.50911682 2.18715607 -9.4392395 2.20106506 C-8.48782074 2.20440353 -7.53640198 2.207742 -6.55615234 2.21118164 C-5.72127289 2.21863907 -4.88639343 2.2260965 -4.0262146 2.23377991 C-1.77207799 2.18634471 -1.77207799 2.18634471 0 0 Z " fill="#CBBFB7" transform="translate(333,294)"/>
<path d="M0 0 C2.96905925 2.61559981 3.90051274 3.88076832 4.25 7.8125 C4.1675 8.534375 4.085 9.25625 4 10 C2.68 10.33 1.36 10.66 0 11 C0.639375 11.53625 1.27875 12.0725 1.9375 12.625 C4.4910849 15.56549171 5 17.11285632 5 21 C3.22412439 24.69382127 1.89735778 26.53092662 -1.75 28.4375 C-7.30455751 29.39886572 -11.32289301 28.83855349 -16.375 26.3125 C-19.36139205 23.68163082 -20.12848228 21.83467797 -21 18 C-19.02 17.34 -17.04 16.68 -15 16 C-15.639375 15.46375 -16.27875 14.9275 -16.9375 14.375 C-19.46366448 11.46608332 -19.92177859 9.83284932 -20 6 C-18.6351028 2.33183877 -17.25429351 1.16087957 -13.9375 -0.9375 C-9.18159678 -2.70831503 -4.6382828 -1.78271391 0 0 Z M-10 7 C-9.67 7.66 -9.34 8.32 -9 9 C-6.47266765 9.65555119 -6.47266765 9.65555119 -4 10 C-4.66 9.01 -5.32 8.02 -6 7 C-7.32 7 -8.64 7 -10 7 Z M-11 17 C-10.01 18.485 -10.01 18.485 -9 20 C-8.01 20 -7.02 20 -6 20 C-6 19.34 -6 18.68 -6 18 C-7.65 17.67 -9.3 17.34 -11 17 Z " fill="#806350" transform="translate(450,256)"/>
<path d="M0 0 C0.8146875 0.00257813 1.629375 0.00515625 2.46875 0.0078125 C3.2834375 0.00523437 4.098125 0.00265625 4.9375 0 C6.96875 0.1328125 6.96875 0.1328125 7.96875 1.1328125 C8.00955783 3.13239614 8.01129356 5.13326504 7.96875 7.1328125 C9.61875 7.1328125 11.26875 7.1328125 12.96875 7.1328125 C12.96875 9.7728125 12.96875 12.4128125 12.96875 15.1328125 C11.31875 15.4628125 9.66875 15.7928125 7.96875 16.1328125 C7.96875 19.7628125 7.96875 23.3928125 7.96875 27.1328125 C9.61875 27.1328125 11.26875 27.1328125 12.96875 27.1328125 C12.96875 30.1028125 12.96875 33.0728125 12.96875 36.1328125 C3.9934973 36.76020881 3.9934973 36.76020881 -0.09375 34.2578125 C-3.49619221 30.52610169 -3.13900217 27.98555085 -3.09375 23.0078125 C-3.08472656 21.72648437 -3.07570313 20.44515625 -3.06640625 19.125 C-3.05480469 18.13757813 -3.04320312 17.15015625 -3.03125 16.1328125 C-4.02125 15.8028125 -5.01125 15.4728125 -6.03125 15.1328125 C-6.03125 12.4928125 -6.03125 9.8528125 -6.03125 7.1328125 C-5.04125 7.1328125 -4.05125 7.1328125 -3.03125 7.1328125 C-3.051875 6.1634375 -3.0725 5.1940625 -3.09375 4.1953125 C-3.01215073 0.19694832 -3.01215073 0.19694832 0 0 Z " fill="#6F4E3A" transform="translate(307.03125,247.8671875)"/>
<path d="M0 0 C12.66666667 0 12.66666667 0 17 4 C19.58644464 7.4094043 19.36503115 10.8386449 19 15 C17.32375739 18.68773373 15.42746406 20.85783496 12 23 C9 24 9 24 0 24 C0 16.08 0 8.16 0 0 Z " fill="#EFC74F" transform="translate(127,249)"/>
<path d="M0 0 C1.5675 -0.061875 3.135 -0.12375 4.75 -0.1875 C6.07257813 -0.23970703 6.07257813 -0.23970703 7.421875 -0.29296875 C10.44671583 0.05076316 11.75583602 1.00227459 14 3 C14.39960938 2.51015625 14.79921875 2.0203125 15.2109375 1.515625 C17.49221729 -0.41698757 18.67840063 -0.34598044 21.625 -0.25 C22.42164063 -0.23453125 23.21828125 -0.2190625 24.0390625 -0.203125 C26 0 26 0 27 1 C27.07244053 3.01964199 27.08377188 5.04167124 27.0625 7.0625 C27.05347656 8.16722656 27.04445313 9.27195312 27.03515625 10.41015625 C27.02355469 11.26480469 27.01195312 12.11945313 27 13 C23.55056671 13.92382231 20.58891277 14.30543938 17 14 C15.125 12.5 15.125 12.5 14 11 C13.67 11.99 13.34 12.98 13 14 C11.35 13.67 9.7 13.34 8 13 C8 10.03 8 7.06 8 4 C7.01 4.33 6.02 4.66 5 5 C4.67 7.97 4.34 10.94 4 14 C2.68 14 1.36 14 0 14 C0 9.38 0 4.76 0 0 Z M19 4 C18.67 5.65 18.34 7.3 18 9 C19.32 9.33 20.64 9.66 22 10 C22.33 8.35 22.66 6.7 23 5 C21.68 4.67 20.36 4.34 19 4 Z " fill="#F0EDEB" transform="translate(284,306)"/>
<path d="M0 0 C0.99 0 1.98 0 3 0 C3 5.94 3 11.88 3 18 C-5 18 -5 18 -6.9375 16.6875 C-8 15 -8 15 -9 12 C-9.144375 12.804375 -9.28875 13.60875 -9.4375 14.4375 C-10 17 -10 17 -11 18 C-16.52941176 18.23529412 -16.52941176 18.23529412 -19 17 C-19.05391993 15.20866022 -19.09275571 13.41686101 -19.125 11.625 C-19.14820313 10.62726563 -19.17140625 9.62953125 -19.1953125 8.6015625 C-19 6 -19 6 -17 4 C-14 3.875 -14 3.875 -11 4 C-10.34 4 -9.68 4 -9 4 C-8.34 3.01 -7.68 2.02 -7 1 C-6.01 1 -5.02 1 -4 1 C-4 1.99 -4 2.98 -4 4 C-3.01 3.67 -2.02 3.34 -1 3 C-0.67 2.01 -0.34 1.02 0 0 Z M-4 8 C-4 9.98 -4 11.96 -4 14 C-3.01 14 -2.02 14 -1 14 C-1 12.02 -1 10.04 -1 8 C-1.99 8 -2.98 8 -4 8 Z " fill="#BDAEA5" transform="translate(376,302)"/>
<path d="M0 0 C1.32 0 2.64 0 4 0 C4 0.99 4 1.98 4 3 C5.65614657 3.38218767 7.32457024 3.71395102 9 4 C9.33 3.67 9.66 3.34 10 3 C15.3660042 2.53339094 15.3660042 2.53339094 17.671875 4.23046875 C19.35434519 6.47211285 19.4024751 7.78293587 19.375 10.5625 C19.38273437 11.34753906 19.39046875 12.13257813 19.3984375 12.94140625 C19.20121094 13.96041016 19.20121094 13.96041016 19 15 C15.50731761 17.32845493 14.09263406 17.16704629 10 17 C8.68 17 7.36 17 6 17 C3.99598989 16.69169075 1.99488234 16.36270588 0 16 C0 13.03 0 10.06 0 7 C-0.66 7 -1.32 7 -2 7 C-1.42415568 4.61435923 -0.77772405 2.33317216 0 0 Z M4 7 C4 8.98 4 10.96 4 13 C4.99 13.33 5.98 13.66 7 14 C7 11.69 7 9.38 7 7 C6.01 7 5.02 7 4 7 Z M11 7 C15 8 15 8 15 8 Z M11 12 C15 13 15 13 15 13 Z " fill="#A69285" transform="translate(403,303)"/>
<path d="M0 0 C2.0625 0.4375 2.0625 0.4375 4 1 C4 1.66 4 2.32 4 3 C5.98 3 7.96 3 10 3 C11.60725635 6.21451269 11.05748185 9.43612536 11 13 C11.99 12.67 12.98 12.34 14 12 C14.33 9.03 14.66 6.06 15 3 C15.99 3 16.98 3 18 3 C18 7.62 18 12.24 18 17 C11.1640625 17.1953125 11.1640625 17.1953125 9 17 C8.34 16.34 7.68 15.68 7 15 C6.67 15.66 6.34 16.32 6 17 C4.02 16.67 2.04 16.34 0 16 C-1.41690212 10.7305293 -2.48735057 6.40854752 -1 1 C-0.67 0.67 -0.34 0.34 0 0 Z M4 7 C4 8.98 4 10.96 4 13 C4.66 13 5.32 13 6 13 C6 11.02 6 9.04 6 7 C5.34 7 4.68 7 4 7 Z " fill="#EBE6E3" transform="translate(382,303)"/>
<path d="M0 0 C9.35384615 -0.49230769 9.35384615 -0.49230769 12.625 2 C13.07875 2.66 13.5325 3.32 14 4 C14.66 2.68 15.32 1.36 16 0 C17.32 0 18.64 0 20 0 C19.67 2.31 19.34 4.62 19 7 C18.34 7 17.68 7 17 7 C16.87625 7.680625 16.7525 8.36125 16.625 9.0625 C15.90899123 12.4277412 14.97054875 15.70013425 14 19 C12.35 19.33 10.7 19.66 9 20 C9.20625 18.783125 9.4125 17.56625 9.625 16.3125 C10.10351344 12.60238206 9.65335215 10.40396031 8 7 C8 6.01 8 5.02 8 4 C7.01 4.33 6.02 4.66 5 5 C4.67 7.97 4.34 10.94 4 14 C2.68 14 1.36 14 0 14 C0 9.38 0 4.76 0 0 Z " fill="#C7BAB2" transform="translate(312,306)"/>
<path d="M0 0 C3.30557316 0.43306846 6.47862338 0.61035469 9.8125 0.5625 C11.1325 0.5625 12.4525 0.5625 13.8125 0.5625 C15.61529191 2.36529191 14.94286605 5.10297701 14.9453125 7.53125 C14.94724609 9.34689453 14.94724609 9.34689453 14.94921875 11.19921875 C14.94535156 12.47410156 14.94148438 13.74898438 14.9375 15.0625 C14.94330078 16.97482422 14.94330078 16.97482422 14.94921875 18.92578125 C14.94792969 20.13621094 14.94664062 21.34664063 14.9453125 22.59375 C14.94418457 23.71330078 14.94305664 24.83285156 14.94189453 25.98632812 C14.8125 28.5625 14.8125 28.5625 13.8125 29.5625 C11.91725333 29.6096601 10.0204663 29.59980315 8.125 29.5625 C4.71597325 29.51817459 1.8461049 29.5555254 -1.5 30.25 C-5.45507766 30.70989275 -7.75094712 29.47169604 -11.1875 27.5625 C-15.6230866 22.89346148 -16.49349197 19.08233923 -16.40234375 12.84375 C-15.96438913 8.19346816 -14.07184093 5.40149011 -10.75 2.25 C-7.02362311 -0.20395552 -4.37212232 -0.64506723 0 0 Z M-13.1875 6.5625 C-14.52577901 9.23905801 -14.39328556 11.38684052 -14.4375 14.375 C-14.46328125 15.41269531 -14.4890625 16.45039063 -14.515625 17.51953125 C-14.06001214 21.74479817 -12.35522392 24.30827802 -9.5 27.375 C-6.11524803 29.11311588 -2.87300303 29.13174601 0.8125 28.5625 C3.7379644 27.2115712 3.7379644 27.2115712 5.8125 25.5625 C5.8125 26.5525 5.8125 27.5425 5.8125 28.5625 C8.1225 28.5625 10.4325 28.5625 12.8125 28.5625 C12.8125 19.6525 12.8125 10.7425 12.8125 1.5625 C10.5025 1.5625 8.1925 1.5625 5.8125 1.5625 C5.8125 2.5525 5.8125 3.5425 5.8125 4.5625 C5.1525 4.0675 4.4925 3.5725 3.8125 3.0625 C-3.43503205 -0.56126603 -7.91561183 1.16202919 -13.1875 6.5625 Z " fill="#B09F93" transform="translate(472.1875,254.4375)"/>
<path d="M0 0 C2.4375 1.25 2.4375 1.25 4 3 C4 4.32 4 5.64 4 7 C3.46375 6.855625 2.9275 6.71125 2.375 6.5625 C-0.39915827 5.90546252 -3.18525388 5.44780052 -6 5 C-6.93423645 8.01031744 -7.04449911 8.86650268 -6 12 C-2.37471432 12.20140476 -0.13498292 11.85776765 3 10 C3.33 11.32 3.66 12.64 4 14 C1.49899342 16.40096632 0.04688447 16.99318044 -3.4375 17.5 C-7 17 -7 17 -9.9375 15 C-12.70834355 10.96968211 -12.40691598 8.80160858 -12 4 C-11.01 3.67 -10.02 3.34 -9 3 C-9 2.34 -9 1.68 -9 1 C-5.94306678 -0.52846661 -3.37015453 -0.23242445 0 0 Z " fill="#BAAAA0" transform="translate(255,303)"/>
<path d="M0 0 C5.71279079 0.75354018 5.71279079 0.75354018 14.875 0.5625 C14.875 10.1325 14.875 19.7025 14.875 29.5625 C10.585 29.5625 6.295 29.5625 1.875 29.5625 C-0.105 29.8925 -2.085 30.2225 -4.125 30.5625 C-9.30161353 28.95596477 -12.16671403 27.11370919 -15.125 22.5625 C-16.8604912 17.3560264 -16.78844383 12.41315911 -14.9375 7.25 C-12.62350446 3.81890317 -10.22428786 1.26082574 -6.22265625 -0.0703125 C-3.96114717 -0.46618187 -2.26487526 -0.33847767 0 0 Z M-13.125 6.5625 C-14.46327901 9.23905801 -14.33078556 11.38684052 -14.375 14.375 C-14.40078125 15.41269531 -14.4265625 16.45039063 -14.453125 17.51953125 C-13.99751214 21.74479817 -12.29272392 24.30827802 -9.4375 27.375 C-6.05274803 29.11311588 -2.81050303 29.13174601 0.875 28.5625 C3.8004644 27.2115712 3.8004644 27.2115712 5.875 25.5625 C5.875 26.5525 5.875 27.5425 5.875 28.5625 C8.515 28.5625 11.155 28.5625 13.875 28.5625 C13.875 19.6525 13.875 10.7425 13.875 1.5625 C11.235 1.5625 8.595 1.5625 5.875 1.5625 C5.875 2.5525 5.875 3.5425 5.875 4.5625 C5.215 4.0675 4.555 3.5725 3.875 3.0625 C-3.37253205 -0.56126603 -7.85311183 1.16202919 -13.125 6.5625 Z " fill="#FAF9F8" transform="translate(412.125,254.4375)"/>
<path d="M0 0 C8.11084337 -0.47710843 8.11084337 -0.47710843 11.5625 1.375 C13.79015889 5.44289884 13.31179274 9.46168352 13 14 C11.35 13.67 9.7 13.34 8 13 C8 10.03 8 7.06 8 4 C6.68 4 5.36 4 4 4 C4 7.3 4 10.6 4 14 C2.68 14 1.36 14 0 14 C0 9.38 0 4.76 0 0 Z " fill="#CBBFB8" transform="translate(343,306)"/>
<path d="M0 0 C0.99 0 1.98 0 3 0 C3 5.94 3 11.88 3 18 C-5 18 -5 18 -7 17 C-7.4140625 14.27734375 -7.4140625 14.27734375 -7.625 10.9375 C-7.69976562 9.83277344 -7.77453125 8.72804688 -7.8515625 7.58984375 C-7.90054687 6.73519531 -7.94953125 5.88054687 -8 5 C-7.34 5 -6.68 5 -6 5 C-5.67 4.34 -5.34 3.68 -5 3 C-5 3.66 -5 4.32 -5 5 C-3.35 5 -1.7 5 0 5 C-0.2784375 4.0409375 -0.2784375 4.0409375 -0.5625 3.0625 C-0.706875 2.381875 -0.85125 1.70125 -1 1 C-0.67 0.67 -0.34 0.34 0 0 Z M-4 8 C-4 9.98 -4 11.96 -4 14 C-3.01 14 -2.02 14 -1 14 C-1 12.02 -1 10.04 -1 8 C-1.99 8 -2.98 8 -4 8 Z " fill="#BDAFA5" transform="translate(376,302)"/>
<path d="M0 0 C0 3.96 0 7.92 0 12 C-3.62296546 12.90574136 -6.30767418 13.24080386 -10 13 C-12 11 -12 11 -12.3125 7.0625 C-12.23455132 4.53146054 -12.15823157 3.27250992 -10.875 1.0625 C-7.16771584 -1.03829436 -4.00178818 -1.33392939 0 0 Z M-8 3 C-8.33 4.65 -8.66 6.3 -9 8 C-7.68 8.33 -6.36 8.66 -5 9 C-4.67 7.35 -4.34 5.7 -4 4 C-5.32 3.67 -6.64 3.34 -8 3 Z " fill="#603C25" transform="translate(311,307)"/>
<path d="M0 0 C1.32 0.33 2.64 0.66 4 1 C4.33 3.64 4.66 6.28 5 9 C5.99 9.33 6.98 9.66 8 10 C8 7.03 8 4.06 8 1 C9.32 0.67 10.64 0.34 12 0 C12 4.62 12 9.24 12 14 C10.576875 14.061875 9.15375 14.12375 7.6875 14.1875 C6.48673828 14.23970703 6.48673828 14.23970703 5.26171875 14.29296875 C3 14 3 14 1.21875 12.84375 C-0.48719934 10.26295485 -0.29557492 8.37462267 -0.1875 5.3125 C-0.16042969 4.31863281 -0.13335937 3.32476562 -0.10546875 2.30078125 C-0.07066406 1.54152344 -0.03585937 0.78226562 0 0 Z " fill="#B09E93" transform="translate(260,306)"/>
<path d="M0 0 C1.58867866 1.58867866 1.20794039 3.24689516 1.25 5.4375 C1.28867187 6.64212891 1.28867187 6.64212891 1.328125 7.87109375 C1.21984375 8.57363281 1.1115625 9.27617187 1 10 C-2.45029042 12.30019361 -3.94554358 12.43132515 -8 12 C-10.46324069 8.30513897 -10.38991688 6.36706908 -10 2 C-7.70416093 -2.32157943 -4.21625407 -0.93694535 0 0 Z M-7 2 C-3 3 -3 3 -3 3 Z M-7 7 C-3 8 -3 8 -3 8 Z " fill="#A08A7D" transform="translate(421,308)"/>
<path d="M0 0 C5.76148916 0.83430031 5.76148916 0.83430031 14.9375 0.625 C14.9375 10.195 14.9375 19.765 14.9375 29.625 C10.6475 29.625 6.3575 29.625 1.9375 29.625 C-0.0425 29.955 -2.0225 30.285 -4.0625 30.625 C-5.0525 29.965 -6.0425 29.305 -7.0625 28.625 C-6.03189453 28.42583984 -6.03189453 28.42583984 -4.98046875 28.22265625 C-3.62888672 27.95775391 -3.62888672 27.95775391 -2.25 27.6875 C-1.35667969 27.51347656 -0.46335938 27.33945312 0.45703125 27.16015625 C3.05147171 26.64758847 3.05147171 26.64758847 5.9375 25.625 C5.9375 26.615 5.9375 27.605 5.9375 28.625 C8.5775 28.625 11.2175 28.625 13.9375 28.625 C13.9375 19.715 13.9375 10.805 13.9375 1.625 C11.2975 1.625 8.6575 1.625 5.9375 1.625 C5.9375 2.615 5.9375 3.605 5.9375 4.625 C5.2775 4.315625 4.6175 4.00625 3.9375 3.6875 C0.23273985 2.37539745 -3.15513991 2.02235865 -7.0625 1.625 C-3.80357221 -0.54761853 -3.57410995 -0.58379291 0 0 Z " fill="#FDFDFD" transform="translate(252.0625,254.375)"/>
<path d="M0 0 C4.64237464 0.60150369 9.13382799 0.63676464 13.8125 0.5625 C13.8125 0.8925 13.8125 1.2225 13.8125 1.5625 C11.1725 1.5625 8.5325 1.5625 5.8125 1.5625 C5.8125 2.5525 5.8125 3.5425 5.8125 4.5625 C5.1525 4.2325 4.4925 3.9025 3.8125 3.5625 C0.03853399 2.30451133 -3.24823902 1.89401935 -7.1875 2.5625 C-9.9975346 4.35613911 -11.69690468 5.58130935 -13.1875 8.5625 C-13.33601844 10.49609586 -13.40880833 12.43592097 -13.4375 14.375 C-13.46328125 15.41269531 -13.4890625 16.45039063 -13.515625 17.51953125 C-13.14552379 20.95177937 -12.13120819 22.75001315 -10.1875 25.5625 C-9.8575 26.2225 -9.5275 26.8825 -9.1875 27.5625 C-12.12326279 26.550168 -13.16262741 25.59892058 -14.9375 23 C-16.94849106 17.4697746 -16.98731489 12.79356259 -15 7.25 C-12.68694446 3.82029696 -10.28819472 1.26273157 -6.2890625 -0.0703125 C-4.01033075 -0.46845522 -2.28306435 -0.33684556 0 0 Z " fill="#E9E4E1" transform="translate(472.1875,254.4375)"/>
<path d="M0 0 C1.32 0.33 2.64 0.66 4 1 C4 6.61 4 12.22 4 18 C2.68 18 1.36 18 0 18 C0 12.06 0 6.12 0 0 Z " fill="#B3A297" transform="translate(274,302)"/>
<path d="M0 0 C2.4375 1.25 2.4375 1.25 4 3 C4 4.32 4 5.64 4 7 C3.46375 6.855625 2.9275 6.71125 2.375 6.5625 C-2.90215597 5.01697884 -2.90215597 5.01697884 -8 6 C-8 5.34 -8 4.68 -8 4 C-8.99 4.495 -8.99 4.495 -10 5 C-10 7.64 -10 10.28 -10 13 C-10.66 12.67 -11.32 12.34 -12 12 C-12 9.36 -12 6.72 -12 4 C-11.01 3.67 -10.02 3.34 -9 3 C-9 2.34 -9 1.68 -9 1 C-5.94306678 -0.52846661 -3.37015453 -0.23242445 0 0 Z " fill="#AA978B" transform="translate(255,303)"/>
<path d="M0 0 C1.32 0 2.64 0 4 0 C4 5.94 4 11.88 4 18 C2.68 17.67 1.36 17.34 0 17 C0 11.39 0 5.78 0 0 Z " fill="#B09F95" transform="translate(279,302)"/>
<path d="M0 0 C1.32 0 2.64 0 4 0 C4 5.61 4 11.22 4 17 C2.68 16.67 1.36 16.34 0 16 C0 10.72 0 5.44 0 0 Z " fill="#B6A69C" transform="translate(338,303)"/>
<path d="M0 0 C0.8146875 0.00257813 1.629375 0.00515625 2.46875 0.0078125 C3.2834375 0.00523437 4.098125 0.00265625 4.9375 0 C6.96875 0.1328125 6.96875 0.1328125 7.96875 1.1328125 C8.00955783 3.13239614 8.01129356 5.13326504 7.96875 7.1328125 C9.61875 7.1328125 11.26875 7.1328125 12.96875 7.1328125 C12.96875 9.7728125 12.96875 12.4128125 12.96875 15.1328125 C12.63875 15.1328125 12.30875 15.1328125 11.96875 15.1328125 C11.96875 12.8228125 11.96875 10.5128125 11.96875 8.1328125 C9.98875 8.1328125 8.00875 8.1328125 5.96875 8.1328125 C5.96875 6.1528125 5.96875 4.1728125 5.96875 2.1328125 C3.65875 2.1328125 1.34875 2.1328125 -1.03125 2.1328125 C-1.03125 4.1128125 -1.03125 6.0928125 -1.03125 8.1328125 C-2.35125 8.1328125 -3.67125 8.1328125 -5.03125 8.1328125 C-5.03125 10.4428125 -5.03125 12.7528125 -5.03125 15.1328125 C-5.36125 15.1328125 -5.69125 15.1328125 -6.03125 15.1328125 C-6.03125 12.4928125 -6.03125 9.8528125 -6.03125 7.1328125 C-5.04125 7.1328125 -4.05125 7.1328125 -3.03125 7.1328125 C-3.051875 6.1634375 -3.0725 5.1940625 -3.09375 4.1953125 C-3.01215073 0.19694832 -3.01215073 0.19694832 0 0 Z " fill="#DCD4CE" transform="translate(307.03125,247.8671875)"/>
<path d="M0 0 C1.32 0 2.64 0 4 0 C3.67 2.31 3.34 4.62 3 7 C2.34 7 1.68 7 1 7 C0.67 8.65 0.34 10.3 0 12 C-0.33 11.34 -0.66 10.68 -1 10 C-1.66 10 -2.32 10 -3 10 C-3.99 7.03 -4.98 4.06 -6 1 C-4.68 1.99 -3.36 2.98 -2 4 C-1.34 2.68 -0.68 1.36 0 0 Z " fill="#C8BBB3" transform="translate(328,306)"/>
<path d="M0 0 C0.66 0 1.32 0 2 0 C2 4.29 2 8.58 2 13 C-5.75 12.25 -5.75 12.25 -8 10 C-8.1953125 7.8359375 -8.1953125 7.8359375 -8.125 5.375 C-8.10695313 4.55773437 -8.08890625 3.74046875 -8.0703125 2.8984375 C-8.04710937 2.27195312 -8.02390625 1.64546875 -8 1 C-7.67 1 -7.34 1 -7 1 C-6.67 3.97 -6.34 6.94 -6 10 C-4.35 9.67 -2.7 9.34 -1 9 C-0.67 6.03 -0.34 3.06 0 0 Z " fill="#67442F" transform="translate(398,307)"/>
<path d="M0 0 C0.66 0 1.32 0 2 0 C2.99 2.97 3.98 5.94 5 9 C5.66 9 6.32 9 7 9 C6.67 11.97 6.34 14.94 6 18 C4.68 18 3.36 18 2 18 C2.226875 16.88625 2.45375 15.7725 2.6875 14.625 C3.3879383 9.34331663 1.78618333 4.92461844 0 0 Z " fill="#907768" transform="translate(320,307)"/>
<path d="M0 0 C2.00720923 0.28674418 4.0085944 0.61866701 6 1 C5.95875 1.9075 5.9175 2.815 5.875 3.75 C5.99793147 6.94621811 6.50035549 8.28410836 8 11 C6.54257537 11.08096803 5.08387193 11.13917774 3.625 11.1875 C2.81289063 11.22230469 2.00078125 11.25710938 1.1640625 11.29296875 C0.44992187 11.19628906 -0.26421875 11.09960938 -1 11 C-1.66 10.01 -2.32 9.02 -3 8 C-2.01 8 -1.02 8 0 8 C-0.33 7.67 -0.66 7.34 -1 7 C-1.125 4 -1.125 4 -1 1 C-0.67 0.67 -0.34 0.34 0 0 Z M1 1 C0.67 2.65 0.34 4.3 0 6 C1.32 6.33 2.64 6.66 4 7 C4.33 5.35 4.66 3.7 5 2 C3.68 1.67 2.36 1.34 1 1 Z " fill="#EFECEA" transform="translate(302,309)"/>
<path d="M0 0 C0 0.99 0 1.98 0 3 C-0.66 2.67 -1.32 2.34 -2 2 C-5.77396601 0.74201133 -9.06073902 0.33151935 -13 1 C-15.8100346 2.79363911 -17.50940468 4.01880935 -19 7 C-19.22622081 8.70363822 -19.40888473 10.41328701 -19.5625 12.125 C-19.64628906 13.03507812 -19.73007812 13.94515625 -19.81640625 14.8828125 C-19.87699219 15.58148438 -19.93757813 16.28015625 -20 17 C-20.33 17 -20.66 17 -21 17 C-21.85984185 6.26153062 -21.85984185 6.26153062 -18.875 2.4375 C-12.48506107 -2.98005692 -7.64532964 -1.96421513 0 0 Z " fill="#DDD5D0" transform="translate(418,256)"/>
<path d="M0 0 C0.33 0.66 0.66 1.32 1 2 C0.05125 1.95875 -0.8975 1.9175 -1.875 1.875 C-5.10244856 1.65026182 -5.10244856 1.65026182 -7 4 C-7.24212873 5.98128508 -7.24212873 5.98128508 -7.125 8.125 C-7.08375 9.40375 -7.0425 10.6825 -7 12 C-7.99 12.33 -8.98 12.66 -10 13 C-10 12.34 -10 11.68 -10 11 C-10.99 11 -11.98 11 -13 11 C-13 8.36 -13 5.72 -13 3 C-12.01 3 -11.02 3 -10 3 C-9.67 2.34 -9.34 1.68 -9 1 C-5.8035914 -0.06546953 -3.34252724 -0.07427838 0 0 Z M-12 4 C-12 5.98 -12 7.96 -12 10 C-11.01 10.33 -10.02 10.66 -9 11 C-9 8.69 -9 6.38 -9 4 C-9.99 4 -10.98 4 -12 4 Z " fill="#F0EDEA" transform="translate(419,306)"/>
<path d="M0 0 C1.65 0.33 3.3 0.66 5 1 C4.125 5.875 4.125 5.875 3 7 C1.00041636 7.04080783 -1.00045254 7.04254356 -3 7 C-3.33 5.68 -3.66 4.36 -4 3 C-2.35 3 -0.7 3 1 3 C0.67 2.01 0.34 1.02 0 0 Z " fill="#9E887A" transform="translate(362,313)"/>
<path d="M0 0 C-2.50892326 2.19530786 -4.73941219 3.28289342 -7.875 4.25 C-12.64018721 5.90086074 -15.10680646 8.99994075 -18 13 C-18.66 12.67 -19.32 12.34 -20 12 C-14.52357596 5.1419857 -9.54944586 -0.93165326 0 0 Z " fill="#B1933B" transform="translate(154,202)"/>
<path d="M0 0 C0.33 0.66 0.66 1.32 1 2 C2.32 2 3.64 2 5 2 C5 2.66 5 3.32 5 4 C4.01 4 3.02 4 2 4 C2 6.97 2 9.94 2 13 C1.34 13 0.68 13 0 13 C0 10.03 0 7.06 0 4 C-0.66 4 -1.32 4 -2 4 C-2 3.34 -2 2.68 -2 2 C-1.34 2 -0.68 2 0 2 C0 1.34 0 0.68 0 0 Z " fill="#71513D" transform="translate(370,305)"/>
<path d="M0 0 C0.33 0.66 0.66 1.32 1 2 C2.32 2 3.64 2 5 2 C5 2.66 5 3.32 5 4 C4.01 4 3.02 4 2 4 C2 6.97 2 9.94 2 13 C1.34 13 0.68 13 0 13 C0 10.03 0 7.06 0 4 C-0.66 4 -1.32 4 -2 4 C-2 3.34 -2 2.68 -2 2 C-1.34 2 -0.68 2 0 2 C0 1.34 0 0.68 0 0 Z " fill="#71513D" transform="translate(383,305)"/>
<path d="M0 0 C1.98 0.99 1.98 0.99 4 2 C3.01 2.495 3.01 2.495 2 3 C2 6.96 2 10.92 2 15 C1.01 15.495 1.01 15.495 0 16 C0 10.72 0 5.44 0 0 Z " fill="#E1DAD6" transform="translate(279,280)"/>
<path d="M0 0 C2.97 0.495 2.97 0.495 6 1 C6 2.65 6 4.3 6 6 C3.36 6 0.72 6 -2 6 C-1.34 4.02 -0.68 2.04 0 0 Z M0 3 C4 4 4 4 4 4 Z " fill="#AA968A" transform="translate(414,307)"/>
<path d="M0 0 C0 0.99 0 1.98 0 3 C2.64 3 5.28 3 8 3 C8 3.33 8 3.66 8 4 C6.80503906 3.98259766 6.80503906 3.98259766 5.5859375 3.96484375 C-0.95649647 3.87845693 -0.95649647 3.87845693 -7.4375 4.625 C-10.54077084 5.0791372 -12.23074871 4.38462564 -15 3 C-12.30179468 1.65089734 -9.92365725 2.02225901 -6.97265625 2.16015625 C-4.1370681 1.92994018 -2.86976549 0 0 0 Z " fill="#E9E4E1" transform="translate(478,280)"/>
<path d="M0 0 C4.75 0.75 4.75 0.75 7 3 C7.1953125 5.1640625 7.1953125 5.1640625 7.125 7.625 C7.10695313 8.44226563 7.08890625 9.25953125 7.0703125 10.1015625 C7.03550781 11.04128906 7.03550781 11.04128906 7 12 C6.34 12 5.68 12 5 12 C4.67 9.36 4.34 6.72 4 4 C1.525 3.01 1.525 3.01 -1 2 C-0.67 1.34 -0.34 0.68 0 0 Z " fill="#71513C" transform="translate(289,307)"/>
<path d="M0 0 C0.99 0 1.98 0 3 0 C3 0.99 3 1.98 3 3 C3.99 3.33 4.98 3.66 6 4 C3.69 4 1.38 4 -1 4 C-0.67 4.66 -0.34 5.32 0 6 C0.13415472 8.6723621 0.04318541 11.32250488 0 14 C-0.33 14 -0.66 14 -1 14 C-1.144375 13.236875 -1.28875 12.47375 -1.4375 11.6875 C-1.9632594 8.91827092 -1.9632594 8.91827092 -3 6 C-1.5625 2.8125 -1.5625 2.8125 0 0 Z " fill="#EBE6E3" transform="translate(369,303)"/>
<path d="M0 0 C0.66 0 1.32 0 2 0 C2 0.66 2 1.32 2 2 C3.98 2 5.96 2 8 2 C8.33 2.66 8.66 3.32 9 4 C8.05125 3.979375 7.1025 3.95875 6.125 3.9375 C3.09333717 3.77448174 3.09333717 3.77448174 1 5 C1 4.34 1 3.68 1 3 C0.01 3.495 0.01 3.495 -1 4 C-1 6.64 -1 9.28 -1 12 C-1.66 11.67 -2.32 11.34 -3 11 C-3 8.36 -3 5.72 -3 3 C-2.01 2.67 -1.02 2.34 0 2 C0 1.34 0 0.68 0 0 Z " fill="#E1DAD5" transform="translate(246,304)"/>
<path d="M0 0 C1.299375 0.165 2.59875 0.33 3.9375 0.5 C8.65419287 1.0315638 13.25638935 1.07529541 18 1 C18 1.33 18 1.66 18 2 C15.36 2 12.72 2 10 2 C10 2.99 10 3.98 10 5 C8.948125 4.5359375 8.948125 4.5359375 7.875 4.0625 C4.91063343 2.96697322 2.12301892 2.43577008 -1 2 C-0.67 1.34 -0.34 0.68 0 0 Z " fill="#E4DEDA" transform="translate(468,254)"/>
<path d="M0 0 C0.66 0 1.32 0 2 0 C3.03159626 3.09478879 2.97482862 4.52631393 2.5625 7.6875 C2.46066406 8.49574219 2.35882813 9.30398438 2.25390625 10.13671875 C2.17011719 10.75160156 2.08632813 11.36648438 2 12 C1.34 12 0.68 12 0 12 C0 8.04 0 4.08 0 0 Z " fill="#603B25" transform="translate(285,307)"/>
<path d="M0 0 C0.66 0 1.32 0 2 0 C3.03159626 3.09478879 2.97482862 4.52631393 2.5625 7.6875 C2.46066406 8.49574219 2.35882813 9.30398438 2.25390625 10.13671875 C2.17011719 10.75160156 2.08632813 11.36648438 2 12 C1.34 12 0.68 12 0 12 C0 8.04 0 4.08 0 0 Z " fill="#5F3B24" transform="translate(344,307)"/>
<path d="M0 0 C0.33 0 0.66 0 1 0 C1 2.97 1 5.94 1 9 C2.65 8.67 4.3 8.34 6 8 C6 8.99 6 9.98 6 11 C3.03 10.505 3.03 10.505 0 10 C0 6.7 0 3.4 0 0 Z " fill="#B8A89E" transform="translate(382,309)"/>
<path d="M0 0 C0.33 0 0.66 0 1 0 C1 2.97 1 5.94 1 9 C2.65 8.67 4.3 8.34 6 8 C6 8.99 6 9.98 6 11 C3.03 10.505 3.03 10.505 0 10 C0 6.7 0 3.4 0 0 Z " fill="#B8A89E" transform="translate(369,309)"/>
<path d="M0 0 C1.32 0.33 2.64 0.66 4 1 C4 0.67 4 0.34 4 0 C5.98 0 7.96 0 10 0 C10.33 0.99 10.66 1.98 11 3 C9.54257537 3.08096803 8.08387193 3.13917774 6.625 3.1875 C5.81289063 3.22230469 5.00078125 3.25710938 4.1640625 3.29296875 C3.44992187 3.19628906 2.73578125 3.09960938 2 3 C1.34 2.01 0.68 1.02 0 0 Z " fill="#C0B2A9" transform="translate(299,317)"/>
<path d="M0 0 C0.66 0 1.32 0 2 0 C2 0.99 2 1.98 2 3 C0.39950296 3.39036513 -1.20562371 3.76178619 -2.8125 4.125 C-3.70582031 4.33382813 -4.59914062 4.54265625 -5.51953125 4.7578125 C-8 5 -8 5 -11 3 C-10.28972656 2.86722656 -9.57945312 2.73445313 -8.84765625 2.59765625 C-7.92855469 2.42105469 -7.00945312 2.24445313 -6.0625 2.0625 C-4.68771484 1.80146484 -4.68771484 1.80146484 -3.28515625 1.53515625 C-1.04710156 1.22285012 -1.04710156 1.22285012 0 0 Z " fill="#E0D9D5" transform="translate(256,280)"/>
<path d="M0 0 C1.33998047 0.31324219 1.33998047 0.31324219 2.70703125 0.6328125 C3.60808594 0.83648437 4.50914062 1.04015625 5.4375 1.25 C6.46810547 1.50136719 6.46810547 1.50136719 7.51953125 1.7578125 C7.51953125 2.7478125 7.51953125 3.7378125 7.51953125 4.7578125 C6.85953125 4.4484375 6.19953125 4.1390625 5.51953125 3.8203125 C1.8147711 2.50820995 -1.57310866 2.15517115 -5.48046875 1.7578125 C-2.48046875 -0.2421875 -2.48046875 -0.2421875 0 0 Z " fill="#DDD5D0" transform="translate(250.48046875,254.2421875)"/>
<path d="M0 0 C0.99 0.33 1.98 0.66 3 1 C3 4.96 3 8.92 3 13 C2.67 13 2.34 13 2 13 C1.67 9.7 1.34 6.4 1 3 C0.01 2.67 -0.98 2.34 -2 2 C-1.34 1.34 -0.68 0.68 0 0 Z " fill="#CDC1BA" transform="translate(308,306)"/>
<path d="M0 0 C0.66 0 1.32 0 2 0 C2.99 2.97 3.98 5.94 5 9 C4.01 9.495 4.01 9.495 3 10 C2.01 6.7 1.02 3.4 0 0 Z " fill="#6D4C38" transform="translate(320,307)"/>
<path d="M0 0 C0.66 0 1.32 0 2 0 C2 0.99 2 1.98 2 3 C-1.3 3.66 -4.6 4.32 -8 5 C-8.33 4.34 -8.66 3.68 -9 3 C-8.43410156 2.86722656 -7.86820312 2.73445313 -7.28515625 2.59765625 C-6.18494141 2.33275391 -6.18494141 2.33275391 -5.0625 2.0625 C-4.33160156 1.88847656 -3.60070312 1.71445312 -2.84765625 1.53515625 C-1.00030102 1.16112431 -1.00030102 1.16112431 0 0 Z " fill="#DCD4CF" transform="translate(416,280)"/>
<path d="M0 0 C0.66 0 1.32 0 2 0 C2 2.97 2 5.94 2 9 C1.34 9 0.68 9 0 9 C-1.36623674 6.26752652 -1.128426 4.01801098 -1 1 C-0.67 0.67 -0.34 0.34 0 0 Z " fill="#5F3B24" transform="translate(245,307)"/>
<path d="M0 0 C1.32 0 2.64 0 4 0 C3.67 1.65 3.34 3.3 3 5 C2.01 4.67 1.02 4.34 0 4 C0 2.68 0 1.36 0 0 Z " fill="#CFC4BD" transform="translate(279,302)"/>
<path d="M0 0 C0.99 0.99 1.98 1.98 3 3 C2.34 4.32 1.68 5.64 1 7 C0.01 6.01 -0.98 5.02 -2 4 C-1.34 2.68 -0.68 1.36 0 0 Z " fill="#775845" transform="translate(333,296)"/>
<path d="M0 0 C1.4370809 -0.05422947 2.87475462 -0.09289723 4.3125 -0.125 C5.11300781 -0.14820313 5.91351563 -0.17140625 6.73828125 -0.1953125 C9 0 9 0 12 2 C10.02 2.99 10.02 2.99 8 4 C8 3.01 8 2.02 8 1 C5.36 1 2.72 1 0 1 C0 0.67 0 0.34 0 0 Z " fill="#E7E3E0" transform="translate(271,255)"/>
<path d="M0 0 C-2.93828597 2.50298434 -5.17902761 3.46930939 -9 4 C-9 3.01 -9 2.02 -9 1 C-5.8035914 -0.06546953 -3.34252724 -0.07427838 0 0 Z " fill="#BFA040" transform="translate(154,202)"/>
</svg>
